<svg width="490" height="490" viewBox="0 0 490 490" fill="none" xmlns="http://www.w3.org/2000/svg">
<path d="M484 455.1L373.9 345C405 307.3 421.9 260.4 421.9 211C421.9 154.6 400 101.7 360.1 61.8C320.3 21.9 267.3 0 211 0C154.7 0 101.7 21.9 61.8 61.8C21.9 101.6 0 154.6 0 211C0 267.3 21.9 320.3 61.8 360.2C101.6 400 154.6 422 211 422C260.5 422 307.4 405.1 345 374L455.1 484C463.1 492 476 492 484 484C492 476 492 463.1 484 455.1ZM90.7 331.2C58.5 299.1 40.8 256.4 40.8 211C40.8 165.6 58.5 122.8 90.6 90.7C122.7 58.6 165.4 40.9 210.9 40.9C256.3 40.9 299.1 58.6 331.2 90.7C363.3 122.8 381 165.5 381 211C381 256.4 363.3 299.2 331.2 331.3C299.1 363.4 256.3 381.1 210.9 381.1C165.5 381.1 122.8 363.4 90.7 331.2Z" fill="white"/>
</svg>
