<svg width="24" height="32" fill="none" xmlns="http://www.w3.org/2000/svg"><path d="M23.69 14.444c.143.197.084.471-.125.576l-2.316 1.282a.396.396 0 0 0-.196.419l.477 2.604a.403.403 0 0 1-.373.47l-2.642.15a.406.406 0 0 0-.36.295l-.7 2.552a.4.4 0 0 1-.536.261l-2.447-1.007a.393.393 0 0 0-.451.104l-1.74 1.996a.403.403 0 0 1-.602.006l-1.766-1.969a.414.414 0 0 0-.458-.098L7.02 23.132a.399.399 0 0 1-.543-.256l-.739-2.544a.399.399 0 0 0-.366-.288l-2.643-.111a.399.399 0 0 1-.38-.465l.439-2.61a.39.39 0 0 0-.203-.418L.251 15.19a.401.401 0 0 1-.138-.582l1.531-2.159a.403.403 0 0 0-.006-.464L.074 9.845a.402.402 0 0 1 .131-.581L2.521 7.98a.396.396 0 0 0 .196-.418l-.478-2.604a.403.403 0 0 1 .373-.47l2.643-.151a.406.406 0 0 0 .36-.295l.7-2.55a.4.4 0 0 1 .536-.262l2.447 1.007c.157.065.34.026.451-.105L11.49.138a.403.403 0 0 1 .602-.006L13.857 2.1c.118.124.301.163.458.098l2.434-1.047a.399.399 0 0 1 .543.255l.732 2.551a.399.399 0 0 0 .366.288l2.643.111a.399.399 0 0 1 .38.465l-.439 2.61a.39.39 0 0 0 .203.419l2.335 1.25c.21.11.275.385.138.581l-1.53 2.159a.403.403 0 0 0 .006.464l1.563 2.14zm-13.038 2.564l7.123-7.124-1.51-1.51-5.613 5.612-2.267-2.267-1.511 1.511 3.778 3.778zm7.706 6.968l1.995 6.162a.297.297 0 0 1-.366.372l-2.375-.693a.293.293 0 0 0-.314.105l-1.524 1.956a.295.295 0 0 1-.517-.092l-2.093-6.49c.046-.032.085-.071.13-.11l1.302-1.19 1.688.51c.19.052.393.084.595.084.57 0 1.1-.229 1.479-.614zm-9.171.02l1.301 1.196c.04.04.085.079.131.111l-2.093 6.49a.296.296 0 0 1-.517.091l-1.524-1.956a.29.29 0 0 0-.314-.104l-2.375.693a.295.295 0 0 1-.366-.373l1.995-6.168a2.082 2.082 0 0 0 2.074.53l1.688-.51z" fill="#F23E57"/></svg>